<svg id="Layer_1" data-name="Layer 1" xmlns="http://www.w3.org/2000/svg" viewBox="0 0 952.31 504.38"><defs><style>.cls-1{fill:none;}.cls-2{fill:#e5451a;}.cls-3{fill:#3b54bb;}.cls-4{fill:#efd0ce;}</style></defs><title>confetti4</title><rect class="cls-1" x="39.82" y="307.7" width="119.19" height="178.63" transform="translate(-205.46 123.97) rotate(-34.09)"/><rect class="cls-2" x="57.27" y="457.15" width="67.93" height="24.48" transform="matrix(-0.56, -0.83, 0.83, -0.56, -246.34, 808.07)"/><rect class="cls-3" x="117.76" y="415.74" width="67.93" height="24.48" transform="translate(250.08 871.29) rotate(-172.99)"/><rect class="cls-4" x="29.8" y="343.97" width="67.93" height="24.48" transform="translate(-286.98 445.24) rotate(-94.09)"/><rect class="cls-1" x="126.2" y="127.56" width="178.63" height="119.19" transform="translate(-67.78 222.06) rotate(-47.99)"/><rect class="cls-2" x="109.32" y="184.36" width="67.93" height="24.48" transform="matrix(0.67, -0.74, 0.74, 0.67, -98.69, 171.51)"/><rect class="cls-3" x="164.05" y="233.13" width="67.93" height="24.48" transform="translate(-21.83 471.39) rotate(-96.89)"/><rect class="cls-4" x="212.6" y="130.5" width="67.93" height="24.48" transform="translate(-32.04 83.15) rotate(-17.99)"/><rect class="cls-1" x="316.49" y="192.4" width="119.19" height="178.63" transform="translate(-88.62 212.04) rotate(-28.31)"/><rect class="cls-2" x="326.67" y="340.66" width="67.93" height="24.48" transform="translate(220.97 837.77) rotate(-118.31)"/><rect class="cls-3" x="391.04" y="305.57" width="67.93" height="24.48" transform="translate(769.06 721.85) rotate(-167.2)"/><rect class="cls-4" x="310.75" y="225.29" width="67.93" height="24.48" transform="translate(97.12 575.09) rotate(-88.31)"/><rect class="cls-1" x="422.7" y="269.29" width="119.19" height="178.63" transform="translate(-50.33 80.19) rotate(-9.04)"/><rect class="cls-2" x="410.26" y="408.46" width="67.93" height="24.48" transform="translate(98.5 925.49) rotate(-99.04)"/><rect class="cls-3" x="482.6" y="396.58" width="67.93" height="24.48" transform="translate(737.23 1029.53) rotate(-147.93)"/><rect class="cls-4" x="433.32" y="294.3" width="67.93" height="24.48" transform="translate(13.85 633.21) rotate(-69.04)"/><rect class="cls-1" x="795.7" y="-17.41" width="119.19" height="178.63" transform="translate(660.21 907.76) rotate(-81.67)"/><rect class="cls-2" x="869.24" y="114.54" width="67.93" height="24.48" transform="translate(1778.5 383.11) rotate(-171.67)"/><rect class="cls-3" x="879.49" y="41.95" width="67.93" height="24.48" transform="translate(1642.64 -498.63) rotate(139.44)"/><rect class="cls-4" x="767.16" y="58.46" width="67.93" height="24.48" transform="translate(1385.7 623.03) rotate(-141.67)"/></svg>