<svg id="Layer_1" data-name="Layer 1" xmlns="http://www.w3.org/2000/svg" viewBox="0 0 835.81 673.74"><defs><style>.cls-1{fill:#e5451a;}.cls-2{fill:none;}.cls-3{fill:#3b54bb;}.cls-4{fill:#efd0ce;}</style></defs><title>confetti1</title><rect class="cls-1" x="564.81" y="272.84" width="67.93" height="24.48"/><rect class="cls-2" x="562.66" y="189.01" width="119.19" height="178.63" transform="translate(-15.95 38.81) rotate(-3.53)"/><rect class="cls-1" x="544.43" y="324.24" width="67.93" height="24.48" transform="translate(278.14 934.49) rotate(-93.53)"/><rect class="cls-3" x="617.58" y="319.35" width="67.93" height="24.48" transform="translate(965.69 991.73) rotate(-142.42)"/><rect class="cls-4" x="578.34" y="212.81" width="67.93" height="24.48" transform="translate(137.9 672.84) rotate(-63.53)"/><rect class="cls-2" x="573.14" y="211.01" width="119.19" height="178.63" transform="translate(-50.16 144.74) rotate(-12.56)"/><rect class="cls-1" x="564.58" y="352.41" width="67.93" height="24.48" transform="translate(372.75 1028.16) rotate(-102.56)"/><rect class="cls-3" x="636.06" y="336.1" width="67.93" height="24.48" transform="translate(1092.1 974.55) rotate(-151.45)"/><rect class="cls-4" x="580.59" y="237.04" width="67.93" height="24.48" transform="translate(192.51 760.84) rotate(-72.56)"/><rect class="cls-3" x="565.19" y="346.15" width="67.93" height="24.48" transform="translate(-64.81 574.23) rotate(-48.89)"/><rect class="cls-2" x="538.83" y="267.04" width="178.63" height="119.19" transform="translate(-6.68 13.19) rotate(-1.2)"/><rect class="cls-1" x="537.85" y="268.2" width="67.93" height="24.48" transform="translate(-5.73 12) rotate(-1.2)"/><rect class="cls-3" x="539.76" y="341.49" width="67.93" height="24.48" transform="translate(-65.69 566.87) rotate(-50.09)"/><rect class="cls-4" x="647.81" y="306.61" width="67.93" height="24.48" transform="translate(237.98 -289.04) rotate(28.8)"/><rect class="cls-2" x="578.45" y="257.93" width="119.19" height="178.63" transform="translate(-65.34 528.73) rotate(-43.02)"/><rect class="cls-1" x="607.22" y="407.78" width="67.93" height="24.48" transform="translate(771.62 1175.36) rotate(-133.02)"/><rect class="cls-3" x="660.56" y="357.49" width="67.93" height="24.48" transform="translate(1401.04 715.99) rotate(178.08)"/><rect class="cls-4" x="562.52" y="300.23" width="67.93" height="24.48" transform="translate(426.48 964.03) rotate(-103.02)"/><rect class="cls-4" x="695.66" y="291.82" width="24.48" height="67.93" transform="translate(71.82 775.96) rotate(-60)"/><rect class="cls-2" x="669.24" y="281.3" width="178.63" height="119.19" transform="matrix(0.21, -0.98, 0.98, 0.21, 263.83, 1009.37)"/><rect class="cls-1" x="666.52" y="372.64" width="67.93" height="24.48" transform="translate(175.17 987.26) rotate(-77.7)"/><rect class="cls-3" x="738.23" y="387.89" width="67.93" height="24.48" transform="translate(911.21 1258.66) rotate(-126.59)"/><rect class="cls-4" x="729.54" y="274.69" width="67.93" height="24.48" transform="translate(37.4 658.48) rotate(-47.7)"/><rect class="cls-2" x="636.66" y="302.83" width="178.63" height="119.19" transform="translate(251.7 1020.79) rotate(-80.76)"/><rect class="cls-1" x="636.38" y="397.21" width="67.93" height="24.48" transform="translate(158.58 1005.37) rotate(-80.76)"/><rect class="cls-3" x="708.8" y="408.61" width="67.93" height="24.48" transform="translate(892.77 1261.27) rotate(-129.66)"/><rect class="cls-4" x="694.07" y="296.03" width="67.93" height="24.48" transform="translate(28.76 677.15) rotate(-50.76)"/><rect class="cls-2" x="255.71" y="239.53" width="119.19" height="178.63" transform="translate(-109.62 164.53) rotate(-25.06)"/><rect class="cls-1" x="261.89" y="386.8" width="67.93" height="24.48" transform="translate(59.72 836.09) rotate(-115.06)"/><rect class="cls-3" x="328.14" y="355.41" width="67.93" height="24.48" transform="translate(608.51 821.04) rotate(-163.96)"/><rect class="cls-4" x="252.53" y="270.71" width="67.93" height="24.48" transform="translate(-20.06 544.03) rotate(-85.06)"/><rect class="cls-2" x="326.06" y="110.03" width="178.63" height="119.19" transform="translate(-7.44 319.76) rotate(-41.76)"/><rect class="cls-1" x="308.58" y="158.93" width="67.93" height="24.48" transform="translate(-26.97 271.64) rotate(-41.76)"/><rect class="cls-3" x="357.69" y="213.36" width="67.93" height="24.48" transform="translate(170.56 619.82) rotate(-90.66)"/><rect class="cls-4" x="417.09" y="116.6" width="67.93" height="24.48" transform="translate(-16.79 94.66) rotate(-11.76)"/><rect class="cls-2" x="188.73" y="90.33" width="178.63" height="119.19" transform="translate(-6.15 12.02) rotate(-2.45)"/><rect class="cls-1" x="186.76" y="92.74" width="67.93" height="24.48" transform="translate(-4.28 9.53) rotate(-2.45)"/><rect class="cls-3" x="190.27" y="165.96" width="67.93" height="24.48" transform="translate(-55 241.99) rotate(-51.34)"/><rect class="cls-4" x="297.53" y="128.74" width="67.93" height="24.48" transform="translate(102.8 -137.34) rotate(27.55)"/><rect class="cls-2" x="34" y="182.54" width="178.63" height="119.19" transform="translate(-146.31 275.81) rotate(-70.13)"/><rect class="cls-1" x="26.01" y="265.85" width="67.93" height="24.48" transform="translate(-221.95 239.97) rotate(-70.13)"/><rect class="cls-3" x="95.08" y="290.41" width="67.93" height="24.48" transform="translate(-72.99 562.33) rotate(-119.02)"/><rect class="cls-4" x="101.38" y="177.05" width="67.93" height="24.48" transform="translate(-90.14 131.79) rotate(-40.13)"/><rect class="cls-2" x="66.43" y="311.39" width="178.63" height="119.19" transform="translate(-161.94 124.09) rotate(-29.37)"/><rect class="cls-1" x="50.32" y="344.62" width="67.93" height="24.48" transform="translate(-164.21 87.22) rotate(-29.37)"/><rect class="cls-3" x="86.61" y="408.32" width="67.93" height="24.48" transform="translate(-315.72 453.11) rotate(-78.27)"/><rect class="cls-4" x="165.38" y="326.56" width="67.93" height="24.48" transform="translate(3.72 -2.16) rotate(0.63)"/><rect class="cls-2" x="287.85" y="257.28" width="119.19" height="178.63" transform="translate(-132.59 448.64) rotate(-56.93)"/><rect class="cls-1" x="334.03" y="404.24" width="67.93" height="24.48" transform="translate(449.12 966.3) rotate(-146.93)"/><rect class="cls-3" x="373.71" y="342.6" width="67.93" height="24.48" transform="translate(896.67 585.06) rotate(164.17)"/><rect class="cls-4" x="264.78" y="310.59" width="67.93" height="24.48" transform="translate(146.24 735.39) rotate(-116.93)"/><rect class="cls-2" x="421.81" y="373.31" width="178.63" height="119.19" transform="translate(-80.37 747.23) rotate(-68.25)"/><rect class="cls-1" x="412.66" y="454.53" width="67.93" height="24.48" transform="translate(-152.42 708.64) rotate(-68.25)"/><rect class="cls-3" x="480.89" y="481.34" width="67.93" height="24.48" transform="translate(310.54 1176.93) rotate(-117.14)"/><rect class="cls-4" x="490.9" y="368.25" width="67.93" height="24.48" transform="translate(-122.88 406.63) rotate(-38.25)"/><rect class="cls-2" x="433.72" y="479.72" width="119.19" height="178.63" transform="translate(-170.51 213.36) rotate(-20.89)"/><rect class="cls-1" x="434.85" y="625.4" width="67.93" height="24.48" transform="translate(40.31 1303.04) rotate(-110.89)"/><rect class="cls-3" x="503.2" y="598.9" width="67.93" height="24.48" transform="translate(830.12 1370.23) rotate(-159.79)"/><rect class="cls-4" x="433.95" y="508.93" width="67.93" height="24.48" transform="translate(-120.73 900.71) rotate(-80.89)"/><rect class="cls-2" x="231.92" y="437.08" width="178.63" height="119.19" transform="translate(-259.2 610.58) rotate(-68.21)"/><rect class="cls-1" x="222.75" y="518.25" width="67.93" height="24.48" transform="translate(-331.17 571.94) rotate(-68.21)"/><rect class="cls-3" x="290.97" y="545.12" width="67.93" height="24.48" transform="translate(-23.19 1100.54) rotate(-117.1)"/><rect class="cls-4" x="301.06" y="432.03" width="67.93" height="24.48" transform="translate(-203.02 302.4) rotate(-38.21)"/><rect class="cls-2" x="204.42" y="265.65" width="178.63" height="119.19" transform="translate(-54.98 59.8) rotate(-10.64)"/><rect class="cls-1" x="196.63" y="276.68" width="67.93" height="24.48" transform="translate(-49.36 47.53) rotate(-10.64)"/><rect class="cls-3" x="210.54" y="348.66" width="67.93" height="24.48" transform="translate(-190.54 388.63) rotate(-59.53)"/><rect class="cls-4" x="311.4" y="296.54" width="67.93" height="24.48" transform="translate(121.92 -97.04) rotate(19.36)"/><rect class="cls-2" x="209.5" y="63.03" width="119.19" height="178.63" transform="translate(-19.21 264.17) rotate(-50.72)"/><rect class="cls-1" x="247.99" y="211.81" width="67.93" height="24.48" transform="translate(358.33 575.99) rotate(-140.72)"/><rect class="cls-3" x="294.11" y="154.82" width="67.93" height="24.48" transform="translate(679.44 277.02) rotate(170.39)"/><rect class="cls-4" x="189.29" y="111.21" width="67.93" height="24.48" transform="translate(186.76 375.94) rotate(-110.72)"/><rect class="cls-2" x="44.71" y="-2.79" width="119.19" height="178.63" transform="translate(-12.65 154.99) rotate(-70.03)"/><rect class="cls-1" x="106.18" y="137.7" width="67.93" height="24.48" transform="translate(220.64 338.73) rotate(-160.03)"/><rect class="cls-3" x="130.87" y="68.67" width="67.93" height="24.48" transform="translate(348.23 72.02) rotate(151.08)"/><rect class="cls-4" x="17.52" y="62.16" width="67.93" height="24.48" transform="translate(27.62 161.68) rotate(-130.03)"/></svg>