<svg id="Layer_1" data-name="Layer 1" xmlns="http://www.w3.org/2000/svg" viewBox="0 0 775.44 772.58"><defs><style>.cls-1{fill:none;}.cls-2{fill:#e5451a;}.cls-3{fill:#3b54bb;}.cls-4{fill:#efd0ce;}</style></defs><title>confetti2</title><rect class="cls-1" x="359.7" y="130.41" width="119.19" height="178.63" transform="translate(-2.02 435.55) rotate(-54.78)"/><rect class="cls-2" x="403.24" y="278.09" width="67.93" height="24.48" transform="translate(626.95 779.66) rotate(-144.78)"/><rect class="cls-3" x="445.21" y="217.98" width="67.93" height="24.48" transform="translate(999.2 340.64) rotate(166.33)"/><rect class="cls-4" x="337.56" y="181.9" width="67.93" height="24.48" transform="translate(350.98 612.83) rotate(-114.78)"/><rect class="cls-1" x="209.51" y="153.76" width="119.19" height="178.63" transform="translate(-92.41 214.6) rotate(-37.59)"/><rect class="cls-2" x="231.38" y="303.58" width="67.93" height="24.48" transform="matrix(-0.61, -0.79, 0.79, -0.61, 176.92, 718.73)"/><rect class="cls-3" x="289.24" y="258.57" width="67.93" height="24.48" transform="translate(629.18 560.95) rotate(-176.48)"/><rect class="cls-4" x="197.07" y="192.28" width="67.93" height="24.48" transform="translate(58.8 460.53) rotate(-97.59)"/><rect class="cls-1" x="249.12" y="175.89" width="119.19" height="178.63" transform="translate(-84.45 160.03) rotate(-25.69)"/><rect class="cls-2" x="256.07" y="323.38" width="67.93" height="24.48" transform="translate(113.31 742.47) rotate(-115.69)"/><rect class="cls-3" x="321.97" y="291.26" width="67.93" height="24.48" transform="translate(618.37 690.7) rotate(-164.58)"/><rect class="cls-4" x="245.44" y="207.39" width="67.93" height="24.48" transform="translate(39.39 481.73) rotate(-85.69)"/><rect class="cls-1" x="291.47" y="265.3" width="178.63" height="119.19" transform="translate(-110.92 231.2) rotate(-29.68)"/><rect class="cls-2" x="275.28" y="298.93" width="67.93" height="24.48" transform="translate(-113.51 193.98) rotate(-29.68)"/><rect class="cls-3" x="311.92" y="362.43" width="67.93" height="24.48" transform="translate(-89.87 639.5) rotate(-78.58)"/><rect class="cls-4" x="390.25" y="280.24" width="67.93" height="24.48" transform="translate(1.62 -2.34) rotate(0.32)"/><rect class="cls-1" x="212.82" y="347.25" width="119.19" height="178.63" transform="matrix(0.62, -0.79, 0.79, 0.62, -239.23, 381.69)"/><rect class="cls-2" x="252.81" y="495.74" width="67.93" height="24.48" transform="translate(199.15 1084.7) rotate(-141.91)"/><rect class="cls-3" x="297.73" y="437.8" width="67.93" height="24.48" transform="translate(741.91 829.9) rotate(169.19)"/><rect class="cls-4" x="192.02" y="396.39" width="67.93" height="24.48" transform="translate(-68.77 770.79) rotate(-111.91)"/><rect class="cls-1" x="74.36" y="440.49" width="119.19" height="178.63" transform="translate(-330.84 242.4) rotate(-44.08)"/><rect class="cls-2" x="104.48" y="590.27" width="67.93" height="24.48" transform="translate(-198.07 1121.12) rotate(-134.08)"/><rect class="cls-3" x="156.88" y="539" width="67.93" height="24.48" transform="translate(410.04 1091.84) rotate(177.03)"/><rect class="cls-4" x="57.8" y="483.56" width="67.93" height="24.48" transform="translate(-366.82 705.43) rotate(-104.08)"/><rect class="cls-1" x="17.72" y="617.4" width="178.63" height="119.19" transform="translate(-316.48 138.09) rotate(-29.18)"/><rect class="cls-2" x="1.66" y="650.4" width="67.93" height="24.48" transform="translate(-318.54 101.45) rotate(-29.18)"/><rect class="cls-3" x="37.73" y="714.22" width="67.93" height="24.48" transform="translate(-653.9 646.47) rotate(-78.07)"/><rect class="cls-4" x="116.78" y="632.73" width="67.93" height="24.48" transform="translate(9.26 -2.09) rotate(0.82)"/><rect class="cls-1" x="24.8" y="282.73" width="178.63" height="119.19" transform="translate(-245.79 316.31) rotate(-67.43)"/><rect class="cls-2" x="15.18" y="363.02" width="67.93" height="24.48" transform="translate(-316.23 276.6) rotate(-67.43)"/><rect class="cls-3" x="83.02" y="390.81" width="67.93" height="24.48" transform="translate(-192.4 686.63) rotate(-116.32)"/><rect class="cls-4" x="94.65" y="277.87" width="67.93" height="24.48" transform="translate(-149.84 137.9) rotate(-37.43)"/><rect class="cls-1" x="100.96" y="106.52" width="119.19" height="178.63" transform="translate(-34.68 34.55) rotate(-11.09)"/><rect class="cls-2" x="90.77" y="247.02" width="67.93" height="24.48" transform="translate(-105.68 431.56) rotate(-101.09)"/><rect class="cls-3" x="162.64" y="232.55" width="67.93" height="24.48" transform="translate(244.41 555.09) rotate(-149.99)"/><rect class="cls-4" x="109.71" y="132.1" width="67.93" height="24.48" transform="translate(-39.43 233.5) rotate(-71.09)"/><rect class="cls-1" x="292.26" y="67.8" width="119.19" height="178.63" transform="translate(-26.09 82.01) rotate(-12.82)"/><rect class="cls-2" x="284" y="209.35" width="67.93" height="24.48" transform="translate(172.47 580.81) rotate(-102.82)"/><rect class="cls-3" x="355.4" y="192.71" width="67.93" height="24.48" transform="translate(635.14 569.93) rotate(-151.72)"/><rect class="cls-4" x="299.47" y="93.91" width="67.93" height="24.48" transform="translate(133.54 393.36) rotate(-72.82)"/><rect class="cls-1" x="424.57" y="73" width="178.63" height="119.19" transform="translate(37.43 366.37) rotate(-40.6)"/><rect class="cls-2" x="407.08" y="120.43" width="67.93" height="24.48" transform="translate(19.84 318.98) rotate(-40.6)"/><rect class="cls-3" x="455.08" y="175.84" width="67.93" height="24.48" transform="translate(296.68 675.46) rotate(-89.5)"/><rect class="cls-4" x="516.42" y="80.3" width="67.93" height="24.48" transform="translate(-7.63 102.85) rotate(-10.6)"/><rect class="cls-1" x="614.62" y="17.9" width="119.19" height="178.63" transform="translate(70.17 425.33) rotate(-36.81)"/><rect class="cls-2" x="635.5" y="167.66" width="67.93" height="24.48" transform="translate(926.53 823.69) rotate(-126.81)"/><rect class="cls-3" x="693.96" y="123.44" width="67.93" height="24.48" transform="matrix(-1, -0.07, 0.07, -1, 1443.65, 325.52)"/><rect class="cls-4" x="602.7" y="55.9" width="67.93" height="24.48" transform="translate(644.48 708.4) rotate(-96.81)"/><rect class="cls-1" x="553.2" y="25.2" width="119.19" height="178.63" transform="translate(-10.39 130.8) rotate(-12.08)"/><rect class="cls-2" x="544.11" y="166.31" width="67.93" height="24.48" transform="translate(524.48 781.19) rotate(-102.08)"/><rect class="cls-3" x="615.72" y="150.59" width="67.93" height="24.48" transform="translate(1138.78 620.43) rotate(-150.98)"/><rect class="cls-4" x="561.07" y="51.07" width="67.93" height="24.48" transform="translate(351.72 610.01) rotate(-72.08)"/><rect class="cls-1" x="355.16" y="70.23" width="178.63" height="119.19" transform="translate(56.89 383.18) rotate(-49.45)"/><rect class="cls-2" x="338.54" y="128.86" width="67.93" height="24.48" transform="translate(23.14 332.44) rotate(-49.45)"/><rect class="cls-3" x="394.5" y="176.23" width="67.93" height="24.48" transform="translate(304.2 639.75) rotate(-98.35)"/><rect class="cls-4" x="440.41" y="72.39" width="67.93" height="24.48" transform="translate(-1.1 162.82) rotate(-19.45)"/><rect class="cls-1" x="253.42" y="226.62" width="178.63" height="119.19" transform="translate(-83.78 418.41) rotate(-57.09)"/><rect class="cls-2" x="238.94" y="294.71" width="67.93" height="24.48" transform="translate(-133.07 369.26) rotate(-57.09)"/><rect class="cls-3" x="300.69" y="334.23" width="67.93" height="24.48" transform="translate(93.71 763.58) rotate(-105.98)"/><rect class="cls-4" x="332.41" y="225.21" width="67.93" height="24.48" transform="translate(-67.94 192.86) rotate(-27.09)"/></svg>