<svg id="Layer_1" data-name="Layer 1" xmlns="http://www.w3.org/2000/svg" viewBox="0 0 434.39 576.31"><defs><style>.cls-1{fill:none;}.cls-2{fill:#e5451a;}.cls-3{fill:#3b54bb;}.cls-4{fill:#efd0ce;}</style></defs><title>confetti3</title><rect class="cls-1" x="273.5" y="379.79" width="119.19" height="178.63" transform="translate(-214.96 294.04) rotate(-36.91)"/><rect class="cls-2" x="294.51" y="529.56" width="67.93" height="24.48" transform="translate(92.5 1129.81) rotate(-126.91)"/><rect class="cls-3" x="352.9" y="485.23" width="67.93" height="24.48" transform="translate(736.27 1021.93) rotate(-175.8)"/><rect class="cls-4" x="261.52" y="417.85" width="67.93" height="24.48" transform="translate(-95.96 775.16) rotate(-96.91)"/><rect class="cls-1" x="172.76" y="253.15" width="119.19" height="178.63" transform="translate(-180.68 368.42) rotate(-59.44)"/><rect class="cls-2" x="221.98" y="399.15" width="67.93" height="24.48" transform="translate(267.16 895.77) rotate(-149.44)"/><rect class="cls-3" x="258.92" y="335.83" width="67.93" height="24.48" transform="translate(680.4 586.34) rotate(161.67)"/><rect class="cls-4" x="148.7" y="308.61" width="67.93" height="24.48" transform="translate(-6.98 637.63) rotate(-119.44)"/><rect class="cls-1" x="127.42" y="114.8" width="178.63" height="119.19" transform="translate(-60.3 199.73) rotate(-44.05)"/><rect class="cls-2" x="110.06" y="166.6" width="67.93" height="24.48" transform="translate(-83.84 150.43) rotate(-44.05)"/><rect class="cls-3" x="161.3" y="219.03" width="67.93" height="24.48" transform="translate(-25.68 438.16) rotate(-92.94)"/><rect class="cls-4" x="216.8" y="119.99" width="67.93" height="24.48" transform="translate(-24.6 64.82) rotate(-14.05)"/><rect class="cls-1" x="14.38" y="25.46" width="178.63" height="119.19" transform="translate(-21.78 37.69) rotate(-18.68)"/><rect class="cls-2" x="2.13" y="45.69" width="67.93" height="24.48" transform="translate(-16.65 14.61) rotate(-18.68)"/><rect class="cls-3" x="25.97" y="115.01" width="67.93" height="24.48" transform="translate(-80.56 134.11) rotate(-67.57)"/><rect class="cls-4" x="118.55" y="49.29" width="67.93" height="24.48" transform="translate(15.05 -28.74) rotate(11.32)"/><rect class="cls-1" x="164.96" y="298.48" width="119.19" height="178.63" transform="translate(-207.93 505.14) rotate(-75.11)"/><rect class="cls-2" x="231.91" y="435.54" width="67.93" height="24.48" transform="translate(407.73 948.86) rotate(-165.11)"/><rect class="cls-3" x="250.39" y="364.6" width="67.93" height="24.48" transform="translate(730.82 530.24) rotate(146)"/><rect class="cls-4" x="136.91" y="368.16" width="67.93" height="24.48" transform="translate(23.44 770.49) rotate(-135.11)"/></svg>